<svg width="222" height="155" viewBox="0 0 222 155" fill="none" xmlns="http://www.w3.org/2000/svg">
<g filter="url(#filter0_d_108_80)">
<path fill-rule="evenodd" clip-rule="evenodd" d="M166.5 51C177.822 51 187 41.8218 187 30.5C187 19.1782 177.822 10 166.5 10C155.178 10 146 19.1782 146 30.5C146 41.8218 155.178 51 166.5 51Z" fill="white"/>
</g>
<path d="M174 25.539C173.405 25.8 172.771 25.973 172.11 26.057C172.79 25.651 173.309 25.013 173.553 24.244C172.919 24.622 172.219 24.889 171.473 25.038C170.871 24.397 170.013 24 169.077 24C167.261 24 165.799 25.474 165.799 27.281C165.799 27.541 165.821 27.791 165.875 28.029C163.148 27.896 160.735 26.589 159.114 24.598C158.831 25.089 158.665 25.651 158.665 26.256C158.665 27.392 159.25 28.399 160.122 28.982C159.595 28.972 159.078 28.819 158.64 28.578C158.64 28.588 158.64 28.601 158.64 28.614C158.64 30.208 159.777 31.532 161.268 31.837C161.001 31.91 160.71 31.945 160.408 31.945C160.198 31.945 159.986 31.933 159.787 31.889C160.212 33.188 161.418 34.143 162.852 34.174C161.736 35.047 160.319 35.573 158.785 35.573C158.516 35.573 158.258 35.561 158 35.528C159.453 36.465 161.175 37 163.032 37C169.068 37 172.368 32 172.368 27.666C172.368 27.521 172.363 27.381 172.356 27.242C173.007 26.78 173.554 26.203 174 25.539Z" fill="#080809"/>
<g filter="url(#filter1_d_108_80)">
<path fill-rule="evenodd" clip-rule="evenodd" d="M30.5 49C41.8218 49 51 39.8218 51 28.5C51 17.1782 41.8218 8 30.5 8C19.1782 8 10 17.1782 10 28.5C10 39.8218 19.1782 49 30.5 49Z" fill="white"/>
</g>
<path fill-rule="evenodd" clip-rule="evenodd" d="M33.1084 26.2445C32.7883 26.1432 32.4202 26.0757 32.0842 26.0757C31.6681 26.0757 30.7719 26.3626 30.7719 26.9195V28.2527H32.9003V30.4971H30.7719V36.6905H28.6275V30.4971H27.5713V28.2527H28.6275V27.122C28.6275 25.4176 29.3636 24 31.14 24C31.7481 24 32.8363 24.0338 33.4284 24.2531L33.1084 26.2445Z" fill="#080809"/>
<g filter="url(#filter2_d_108_80)">
<path fill-rule="evenodd" clip-rule="evenodd" d="M98.5 53C110.926 53 121 42.9264 121 30.5C121 18.0736 110.926 8 98.5 8C86.0736 8 76 18.0736 76 30.5C76 42.9264 86.0736 53 98.5 53Z" fill="url(#paint0_angular_108_80)"/>
</g>
<g clip-path="url(#clip0_108_80)">
<path d="M104.656 22H93.3438C92.0516 22 91 23.0516 91 24.3438V35.6562C91 36.9487 92.0516 38 93.3438 38H104.656C105.949 38 107 36.9487 107 35.6562V24.3438C107 23.0516 105.949 22 104.656 22ZM106.062 35.6562C106.062 36.4316 105.432 37.0625 104.656 37.0625H93.3438C92.5684 37.0625 91.9375 36.4316 91.9375 35.6562V24.3438C91.9375 23.5684 92.5684 22.9375 93.3438 22.9375H104.656C105.432 22.9375 106.062 23.5684 106.062 24.3438V35.6562Z" fill="white"/>
<path d="M104.156 23.9062C103.639 23.9062 103.219 24.3269 103.219 24.8438C103.219 25.3606 103.639 25.7812 104.156 25.7812C104.673 25.7812 105.094 25.3606 105.094 24.8438C105.094 24.3269 104.673 23.9062 104.156 23.9062Z" fill="white"/>
<path d="M99 25.7812C96.6737 25.7812 94.7812 27.6737 94.7812 30C94.7812 32.3263 96.6737 34.2188 99 34.2188C101.326 34.2188 103.219 32.3263 103.219 30C103.219 27.6737 101.326 25.7812 99 25.7812ZM99 33.2812C97.1906 33.2812 95.7188 31.8094 95.7188 30C95.7188 28.1906 97.1906 26.7188 99 26.7188C100.809 26.7188 102.281 28.1906 102.281 30C102.281 31.8094 100.809 33.2812 99 33.2812Z" fill="white"/>
</g>
<path d="M16.04 85.1H11.5V99H16.04C20.5 99 23.42 96.38 23.42 92.1C23.42 87.8 20.5 85.1 16.04 85.1ZM13.78 97.14V86.96H16.04C19.32 86.96 21.08 88.92 21.08 92.1C21.08 95.26 19.32 97.14 16.04 97.14H13.78ZM25.7797 99H28.0597V87.98H25.7797V99ZM26.9397 86.52C27.7397 86.52 28.3797 85.88 28.3797 85.06C28.3797 84.24 27.7397 83.6 26.9397 83.6C26.1197 83.6 25.4797 84.24 25.4797 85.06C25.4797 85.88 26.1197 86.52 26.9397 86.52ZM39.3731 95.92C39.2531 91.94 33.0331 93.18 33.0331 90.96C33.0331 90.22 33.6731 89.72 34.8931 89.72C36.1331 89.72 36.8731 90.38 36.9531 91.34H39.2331C39.1131 89.14 37.4731 87.8 34.9731 87.8C32.3731 87.8 30.7331 89.22 30.7331 90.98C30.7331 95.02 37.1331 93.78 37.1331 95.94C37.1331 96.7 36.4331 97.26 35.1131 97.26C33.8531 97.26 32.9931 96.52 32.9131 95.62H30.5531C30.6531 97.62 32.5131 99.18 35.1531 99.18C37.7531 99.18 39.3731 97.78 39.3731 95.92ZM41.1767 93.48C41.1767 96.94 43.4167 99.18 46.5767 99.18C49.2767 99.18 51.0367 97.68 51.6567 95.52H49.1967C48.7767 96.66 47.9367 97.26 46.5767 97.26C44.7367 97.26 43.5167 95.9 43.5167 93.48C43.5167 91.08 44.7367 89.72 46.5767 89.72C47.9367 89.72 48.8167 90.4 49.1967 91.46H51.6567C51.0367 89.14 49.2767 87.8 46.5767 87.8C43.4167 87.8 41.1767 90.04 41.1767 93.48ZM64.5289 93.48C64.5289 90.02 62.0489 87.8 58.9089 87.8C55.7689 87.8 53.2889 90.02 53.2889 93.48C53.2889 96.94 55.6689 99.18 58.8089 99.18C61.9689 99.18 64.5289 96.94 64.5289 93.48ZM55.6089 93.48C55.6089 90.98 57.1489 89.78 58.8689 89.78C60.5689 89.78 62.1889 90.98 62.1889 93.48C62.1889 95.98 60.5089 97.2 58.8089 97.2C57.0889 97.2 55.6089 95.98 55.6089 93.48ZM65.5828 87.98L69.7628 99H72.4828L76.6828 87.98H74.2628L71.1428 96.96L68.0228 87.98H65.5828ZM83.1462 89.72C84.8462 89.72 86.1862 90.8 86.2262 92.5H80.1262C80.3662 90.76 81.6062 89.72 83.1462 89.72ZM88.3062 95.72H85.8462C85.4262 96.58 84.6462 97.26 83.2462 97.26C81.5662 97.26 80.2662 96.16 80.1062 94.34H88.5262C88.5862 93.96 88.6062 93.6 88.6062 93.22C88.6062 89.98 86.3862 87.8 83.2462 87.8C79.9862 87.8 77.7462 90.02 77.7462 93.48C77.7462 96.94 80.0862 99.18 83.2462 99.18C85.9462 99.18 87.6862 97.64 88.3062 95.72ZM93.23 93.2C93.23 90.86 94.27 90.16 95.95 90.16H96.53V87.8C94.97 87.8 93.87 88.48 93.23 89.58V87.98H90.95V99H93.23V93.2ZM114.521 93.48C114.521 90.02 112.041 87.8 108.901 87.8C105.761 87.8 103.281 90.02 103.281 93.48C103.281 96.94 105.661 99.18 108.801 99.18C111.961 99.18 114.521 96.94 114.521 93.48ZM105.601 93.48C105.601 90.98 107.141 89.78 108.861 89.78C110.561 89.78 112.181 90.98 112.181 93.48C112.181 95.98 110.501 97.2 108.801 97.2C107.081 97.2 105.601 95.98 105.601 93.48ZM126.855 87.98H124.575V94.12C124.575 96.14 123.475 97.18 121.795 97.18C120.135 97.18 119.035 96.14 119.035 94.12V87.98H116.775V94.46C116.775 97.54 118.735 99.16 121.315 99.16C122.615 99.16 123.855 98.62 124.575 97.68V99H126.855V87.98ZM132.243 93.2C132.243 90.86 133.283 90.16 134.963 90.16H135.543V87.8C133.983 87.8 132.883 88.48 132.243 89.58V87.98H129.963V99H132.243V93.2ZM142.274 93.44C142.274 96.84 144.574 99.18 147.434 99.18C149.274 99.18 150.594 98.3 151.294 97.36V99H153.594V87.98H151.294V89.58C150.614 88.68 149.334 87.8 147.474 87.8C144.574 87.8 142.274 90.04 142.274 93.44ZM151.294 93.48C151.294 95.86 149.674 97.2 147.954 97.2C146.254 97.2 144.614 95.82 144.614 93.44C144.614 91.06 146.254 89.78 147.954 89.78C149.674 89.78 151.294 91.12 151.294 93.48ZM158.969 89.6V87.98H156.689V104.24H158.969V97.4C159.689 98.26 160.989 99.18 162.809 99.18C165.709 99.18 167.989 96.84 167.989 93.44C167.989 90.04 165.709 87.8 162.809 87.8C161.009 87.8 159.669 88.68 158.969 89.6ZM165.669 93.44C165.669 95.82 164.029 97.2 162.309 97.2C160.609 97.2 158.969 95.86 158.969 93.48C158.969 91.12 160.609 89.78 162.309 89.78C164.029 89.78 165.669 91.06 165.669 93.44ZM172.624 89.6V87.98H170.344V104.24H172.624V97.4C173.344 98.26 174.644 99.18 176.464 99.18C179.364 99.18 181.644 96.84 181.644 93.44C181.644 90.04 179.364 87.8 176.464 87.8C174.664 87.8 173.324 88.68 172.624 89.6ZM179.324 93.44C179.324 95.82 177.684 97.2 175.964 97.2C174.264 97.2 172.624 95.86 172.624 93.48C172.624 91.12 174.264 89.78 175.964 89.78C177.684 89.78 179.324 91.06 179.324 93.44Z" fill="#5E6282"/>
<rect x="8" y="120" width="107" height="35" rx="17.5" fill="#080809"/>
<g clip-path="url(#clip1_108_80)">
<path d="M36.5075 137.002L26.4639 146.673C25.9936 146.352 25.7144 145.817 25.7193 145.247V128.756C25.7144 128.187 25.9936 127.652 26.4639 127.331L36.5075 137.002Z" fill="#2196F3"/>
<path d="M40.0217 133.624L36.5074 137.002L26.4639 127.331C26.5017 127.301 26.5411 127.274 26.5819 127.249C27.1127 126.927 27.7757 126.917 28.3164 127.222L40.0217 133.624Z" fill="#4CAF50"/>
<path d="M44.2806 137.002C44.2872 137.645 43.9377 138.239 43.3725 138.545L40.0217 140.38L36.5073 137.002L40.0217 133.624L43.3725 135.458C43.9377 135.765 44.2872 136.359 44.2806 137.002Z" fill="#F0BB1F"/>
<path d="M40.0217 140.38L28.3164 146.782C27.7745 147.082 27.114 147.072 26.5819 146.755C26.5411 146.73 26.5017 146.703 26.4639 146.673L36.5074 137.002L40.0217 140.38Z" fill="#F15A2B"/>
</g>
<path d="M56.024 131.88H53.216V133H54.712C54.512 133.536 54.024 133.864 53.28 133.864C52.192 133.864 51.52 133.168 51.52 132.216C51.52 131.232 52.224 130.536 53.168 130.536C53.8 130.536 54.304 130.824 54.536 131.192L55.624 130.568C55.152 129.816 54.248 129.288 53.176 129.288C51.528 129.288 50.24 130.584 50.24 132.208C50.24 133.816 51.504 135.112 53.264 135.112C54.832 135.112 56.024 134.072 56.024 132.36V131.88Z" fill="white"/>
<path d="M57.6256 133.768V132.776H59.6256V131.56H57.6256V130.632H59.8256V129.4H56.3456V135H59.8656V133.768H57.6256Z" fill="white"/>
<path d="M63.9478 129.4H59.7878V130.632H61.2278V135H62.5078V130.632H63.9478V129.4Z" fill="white"/>
<path d="M65.7081 129.4V135H66.9881V129.4H65.7081Z" fill="white"/>
<path d="M71.3103 129.4H67.1503V130.632H68.5903V135H69.8703V130.632H71.3103V129.4Z" fill="white"/>
<path d="M75.7426 135.112C77.3506 135.112 78.6546 133.848 78.6546 132.2C78.6546 130.552 77.3506 129.288 75.7426 129.288C74.1346 129.288 72.8306 130.552 72.8306 132.2C72.8306 133.848 74.1346 135.112 75.7426 135.112ZM75.7426 133.864C74.8306 133.864 74.1106 133.2 74.1106 132.2C74.1106 131.2 74.8306 130.536 75.7426 130.536C76.6546 130.536 77.3746 131.2 77.3746 132.2C77.3746 133.2 76.6546 133.864 75.7426 133.864Z" fill="white"/>
<path d="M82.0953 129.4V132.44L79.9353 129.4H78.9753V135H80.2553V131.96L82.4153 135H83.3753V129.4H82.0953Z" fill="white"/>
<path d="M56.024 141.392V141.608C56.024 142.307 55.776 142.896 55.28 143.376C54.784 143.851 54.1307 144.088 53.32 144.088C52.4667 144.088 51.7627 143.811 51.208 143.256C50.6533 142.696 50.376 142.011 50.376 141.2C50.376 140.389 50.6507 139.707 51.2 139.152C51.7493 138.592 52.4453 138.312 53.288 138.312C53.8 138.312 54.2693 138.435 54.696 138.68C55.128 138.925 55.4613 139.253 55.696 139.664L55.32 139.888C55.1333 139.536 54.856 139.253 54.488 139.04C54.1253 138.827 53.7253 138.72 53.288 138.72C52.5627 138.72 51.9653 138.96 51.496 139.44C51.032 139.915 50.8 140.501 50.8 141.2C50.8 141.899 51.0347 142.488 51.504 142.968C51.9733 143.443 52.5787 143.68 53.32 143.68C53.976 143.68 54.5067 143.501 54.912 143.144C55.3173 142.787 55.544 142.336 55.592 141.792H53.216V141.392H56.024Z" fill="white"/>
<path d="M61.7026 143.248C61.1426 143.808 60.4599 144.088 59.6546 144.088C58.8493 144.088 58.1666 143.808 57.6066 143.248C57.0466 142.683 56.7666 142 56.7666 141.2C56.7666 140.4 57.0466 139.72 57.6066 139.16C58.1666 138.595 58.8493 138.312 59.6546 138.312C60.4599 138.312 61.1426 138.595 61.7026 139.16C62.2626 139.72 62.5426 140.4 62.5426 141.2C62.5426 142 62.2626 142.683 61.7026 143.248ZM57.9026 142.96C58.3826 143.44 58.9666 143.68 59.6546 143.68C60.3426 143.68 60.9239 143.44 61.3986 142.96C61.8786 142.475 62.1186 141.888 62.1186 141.2C62.1186 140.512 61.8786 139.928 61.3986 139.448C60.9239 138.963 60.3426 138.72 59.6546 138.72C58.9666 138.72 58.3826 138.963 57.9026 139.448C57.4279 139.928 57.1906 140.512 57.1906 141.2C57.1906 141.888 57.4279 142.475 57.9026 142.96Z" fill="white"/>
<path d="M68.2339 143.248C67.6739 143.808 66.9912 144.088 66.1859 144.088C65.3805 144.088 64.6979 143.808 64.1379 143.248C63.5779 142.683 63.2979 142 63.2979 141.2C63.2979 140.4 63.5779 139.72 64.1379 139.16C64.6979 138.595 65.3805 138.312 66.1859 138.312C66.9912 138.312 67.6739 138.595 68.2339 139.16C68.7939 139.72 69.0739 140.4 69.0739 141.2C69.0739 142 68.7939 142.683 68.2339 143.248ZM64.4339 142.96C64.9139 143.44 65.4979 143.68 66.1859 143.68C66.8739 143.68 67.4552 143.44 67.9299 142.96C68.4099 142.475 68.6499 141.888 68.6499 141.2C68.6499 140.512 68.4099 139.928 67.9299 139.448C67.4552 138.963 66.8739 138.72 66.1859 138.72C65.4979 138.72 64.9139 138.963 64.4339 139.448C63.9592 139.928 63.7219 140.512 63.7219 141.2C63.7219 141.888 63.9592 142.475 64.4339 142.96Z" fill="white"/>
<path d="M75.4771 141.392V141.608C75.4771 142.307 75.2291 142.896 74.7331 143.376C74.2371 143.851 73.5838 144.088 72.7731 144.088C71.9198 144.088 71.2158 143.811 70.6611 143.256C70.1064 142.696 69.8291 142.011 69.8291 141.2C69.8291 140.389 70.1038 139.707 70.6531 139.152C71.2024 138.592 71.8984 138.312 72.7411 138.312C73.2531 138.312 73.7224 138.435 74.1491 138.68C74.5811 138.925 74.9144 139.253 75.1491 139.664L74.7731 139.888C74.5864 139.536 74.3091 139.253 73.9411 139.04C73.5784 138.827 73.1784 138.72 72.7411 138.72C72.0158 138.72 71.4184 138.96 70.9491 139.44C70.4851 139.915 70.2531 140.501 70.2531 141.2C70.2531 141.899 70.4878 142.488 70.9571 142.968C71.4264 143.443 72.0318 143.68 72.7731 143.68C73.4291 143.68 73.9598 143.501 74.3651 143.144C74.7705 142.787 74.9971 142.336 75.0451 141.792H72.6691V141.392H75.4771Z" fill="white"/>
<path d="M76.9637 143.6H79.6037V144H76.5397V138.4H76.9637V143.6Z" fill="white"/>
<path d="M80.9091 143.6H83.7091V144H80.4851V138.4H83.6691V138.8H80.9091V140.976H83.4691V141.376H80.9091V143.6Z" fill="white"/>
<path d="M88.7875 138.4C89.2888 138.4 89.7048 138.565 90.0355 138.896C90.3662 139.227 90.5315 139.64 90.5315 140.136C90.5315 140.632 90.3662 141.045 90.0355 141.376C89.7048 141.701 89.2888 141.864 88.7875 141.864H87.3075V144H86.8835V138.4H88.7875ZM88.7875 141.464C89.1715 141.464 89.4862 141.339 89.7315 141.088C89.9822 140.837 90.1075 140.52 90.1075 140.136C90.1075 139.747 89.9822 139.427 89.7315 139.176C89.4862 138.925 89.1715 138.8 88.7875 138.8H87.3075V141.464H88.7875Z" fill="white"/>
<path d="M92.0028 143.6H94.6428V144H91.5788V138.4H92.0028V143.6Z" fill="white"/>
<path d="M99.4484 144L98.9044 142.576H96.0964L95.5524 144H95.1044L97.2804 138.4H97.7284L99.8964 144H99.4484ZM96.2564 142.176H98.7524L97.5044 138.92L96.2564 142.176Z" fill="white"/>
<path d="M103.881 138.4L101.841 141.696V144H101.417V141.696L99.3769 138.4H99.8569L101.633 141.288L103.401 138.4H103.881Z" fill="white"/>
<rect x="122" y="120" width="100" height="35" rx="17.5" fill="#080809"/>
<path d="M143.789 144C141.408 143.986 139.438 139.125 139.438 136.65C139.438 132.606 142.472 131.72 143.641 131.72C144.168 131.72 144.73 131.927 145.227 132.11C145.574 132.238 145.933 132.37 146.132 132.37C146.252 132.37 146.533 132.258 146.782 132.159C147.312 131.948 147.971 131.686 148.74 131.686C148.741 131.686 148.743 131.686 148.744 131.686C149.318 131.686 151.057 131.812 152.102 133.382L152.347 133.75L151.995 134.016C151.491 134.396 150.572 135.089 150.572 136.462C150.572 138.088 151.613 138.713 152.113 139.014C152.333 139.147 152.562 139.284 152.562 139.583C152.562 139.778 151.002 143.976 148.736 143.976C148.182 143.976 147.79 143.809 147.444 143.662C147.095 143.513 146.793 143.385 146.295 143.385C146.042 143.385 145.722 143.505 145.384 143.631C144.922 143.804 144.399 144 143.805 144H143.789Z" fill="white"/>
<path d="M148.98 128C149.039 130.127 147.517 131.603 145.997 131.511C145.747 129.813 147.517 128 148.98 128Z" fill="white"/>
<path d="M161.03 133H162.08L160.652 128.8H159.428L158 133H159.05L159.26 132.34H160.82L161.03 133ZM159.548 131.44L160.04 129.898L160.532 131.44H159.548Z" fill="white"/>
<path d="M164.205 130L163.581 131.902L162.957 130H161.961L163.071 133H164.091L165.201 130H164.205Z" fill="white"/>
<path d="M167.592 130V130.282C167.394 130.054 167.1 129.916 166.698 129.916C165.912 129.916 165.264 130.606 165.264 131.5C165.264 132.394 165.912 133.084 166.698 133.084C167.1 133.084 167.394 132.946 167.592 132.718V133H168.492V130H167.592ZM166.878 132.232C166.464 132.232 166.164 131.95 166.164 131.5C166.164 131.05 166.464 130.768 166.878 130.768C167.292 130.768 167.592 131.05 167.592 131.5C167.592 131.95 167.292 132.232 166.878 132.232Z" fill="white"/>
<path d="M169.152 133H170.052V128.62H169.152V133Z" fill="white"/>
<path d="M171.161 129.736C171.455 129.736 171.701 129.49 171.701 129.196C171.701 128.902 171.455 128.656 171.161 128.656C170.867 128.656 170.621 128.902 170.621 129.196C170.621 129.49 170.867 129.736 171.161 129.736ZM170.711 133H171.611V130H170.711V133Z" fill="white"/>
<path d="M174.063 129.916C173.661 129.916 173.367 130.054 173.169 130.282V128.8H172.269V133H173.169V132.718C173.367 132.946 173.661 133.084 174.063 133.084C174.849 133.084 175.497 132.394 175.497 131.5C175.497 130.606 174.849 129.916 174.063 129.916ZM173.883 132.232C173.469 132.232 173.169 131.95 173.169 131.5C173.169 131.05 173.469 130.768 173.883 130.768C174.297 130.768 174.597 131.05 174.597 131.5C174.597 131.95 174.297 132.232 173.883 132.232Z" fill="white"/>
<path d="M176.008 133H176.908V128.62H176.008V133Z" fill="white"/>
<path d="M178.37 131.86H180.5C180.524 131.746 180.536 131.626 180.536 131.5C180.536 130.594 179.888 129.916 179.012 129.916C178.064 129.916 177.416 130.606 177.416 131.5C177.416 132.394 178.052 133.084 179.078 133.084C179.648 133.084 180.092 132.874 180.386 132.466L179.666 132.052C179.546 132.184 179.336 132.28 179.09 132.28C178.76 132.28 178.484 132.172 178.37 131.86ZM178.352 131.188C178.436 130.882 178.664 130.714 179.006 130.714C179.276 130.714 179.546 130.84 179.642 131.188H178.352Z" fill="white"/>
<path d="M183.987 133.084C184.869 133.084 185.577 132.394 185.577 131.5C185.577 130.606 184.869 129.916 183.987 129.916C183.105 129.916 182.397 130.606 182.397 131.5C182.397 132.394 183.105 133.084 183.987 133.084ZM183.987 132.208C183.597 132.208 183.297 131.926 183.297 131.5C183.297 131.074 183.597 130.792 183.987 130.792C184.377 130.792 184.677 131.074 184.677 131.5C184.677 131.926 184.377 132.208 183.987 132.208Z" fill="white"/>
<path d="M187.844 129.916C187.448 129.916 187.148 130.06 186.986 130.282V130H186.086V133H186.986V131.362C186.986 130.936 187.214 130.744 187.544 130.744C187.832 130.744 188.066 130.918 188.066 131.29V133H188.966V131.158C188.966 130.348 188.45 129.916 187.844 129.916Z" fill="white"/>
<path d="M192.842 130.864V130H192.224V129.16L191.324 129.43V130H190.844V130.864H191.324V131.926C191.324 132.766 191.666 133.12 192.842 133V132.184C192.446 132.208 192.224 132.184 192.224 131.926V130.864H192.842Z" fill="white"/>
<path d="M195.109 129.916C194.713 129.916 194.413 130.06 194.251 130.282V128.8H193.351V133H194.251V131.362C194.251 130.936 194.479 130.744 194.809 130.744C195.097 130.744 195.331 130.918 195.331 131.29V133H196.231V131.158C196.231 130.348 195.715 129.916 195.109 129.916Z" fill="white"/>
<path d="M197.654 131.86H199.784C199.808 131.746 199.82 131.626 199.82 131.5C199.82 130.594 199.172 129.916 198.296 129.916C197.348 129.916 196.7 130.606 196.7 131.5C196.7 132.394 197.336 133.084 198.362 133.084C198.932 133.084 199.376 132.874 199.67 132.466L198.95 132.052C198.83 132.184 198.62 132.28 198.374 132.28C198.044 132.28 197.768 132.172 197.654 131.86ZM197.636 131.188C197.72 130.882 197.948 130.714 198.29 130.714C198.56 130.714 198.83 130.84 198.926 131.188H197.636Z" fill="white"/>
<path d="M163.05 144H164.8L162.42 137H160.38L158 144H159.75L160.1 142.9H162.7L163.05 144ZM160.58 141.4L161.4 138.83L162.22 141.4H160.58Z" fill="white"/>
<path d="M168.337 138.86C167.667 138.86 167.177 139.09 166.847 139.47V139H165.347V146H166.847V143.53C167.177 143.91 167.667 144.14 168.337 144.14C169.647 144.14 170.727 142.99 170.727 141.5C170.727 140.01 169.647 138.86 168.337 138.86ZM168.037 142.72C167.347 142.72 166.847 142.25 166.847 141.5C166.847 140.75 167.347 140.28 168.037 140.28C168.727 140.28 169.227 140.75 169.227 141.5C169.227 142.25 168.727 142.72 168.037 142.72Z" fill="white"/>
<path d="M174.567 138.86C173.897 138.86 173.407 139.09 173.077 139.47V139H171.577V146H173.077V143.53C173.407 143.91 173.897 144.14 174.567 144.14C175.877 144.14 176.957 142.99 176.957 141.5C176.957 140.01 175.877 138.86 174.567 138.86ZM174.267 142.72C173.577 142.72 173.077 142.25 173.077 141.5C173.077 140.75 173.577 140.28 174.267 140.28C174.957 140.28 175.457 140.75 175.457 141.5C175.457 142.25 174.957 142.72 174.267 142.72Z" fill="white"/>
<path d="M177.808 144H179.308V136.7H177.808V144Z" fill="white"/>
<path d="M181.745 142.1H185.295C185.335 141.91 185.355 141.71 185.355 141.5C185.355 139.99 184.275 138.86 182.815 138.86C181.235 138.86 180.155 140.01 180.155 141.5C180.155 142.99 181.215 144.14 182.925 144.14C183.875 144.14 184.615 143.79 185.105 143.11L183.905 142.42C183.705 142.64 183.355 142.8 182.945 142.8C182.395 142.8 181.935 142.62 181.745 142.1ZM181.715 140.98C181.855 140.47 182.235 140.19 182.805 140.19C183.255 140.19 183.705 140.4 183.865 140.98H181.715Z" fill="white"/>
<path d="M191.206 144.14C192.726 144.14 193.806 143.34 193.806 141.99C193.806 140.51 192.616 140.14 191.556 139.82C190.466 139.49 190.296 139.27 190.296 138.95C190.296 138.67 190.546 138.42 191.046 138.42C191.686 138.42 192.016 138.73 192.256 139.23L193.606 138.44C193.096 137.41 192.196 136.86 191.046 136.86C189.836 136.86 188.696 137.64 188.696 138.99C188.696 140.33 189.716 140.83 190.756 141.12C191.806 141.41 192.206 141.58 192.206 142.01C192.206 142.28 192.016 142.58 191.256 142.58C190.466 142.58 190.036 142.19 189.786 141.61L188.406 142.41C188.796 143.44 189.736 144.14 191.206 144.14Z" fill="white"/>
<path d="M197.339 140.44V139H196.309V137.6L194.809 138.05V139H194.009V140.44H194.809V142.21C194.809 143.61 195.379 144.2 197.339 144V142.64C196.679 142.68 196.309 142.64 196.309 142.21V140.44H197.339Z" fill="white"/>
<path d="M200.491 144.14C201.961 144.14 203.141 142.99 203.141 141.5C203.141 140.01 201.961 138.86 200.491 138.86C199.021 138.86 197.841 140.01 197.841 141.5C197.841 142.99 199.021 144.14 200.491 144.14ZM200.491 142.68C199.841 142.68 199.341 142.21 199.341 141.5C199.341 140.79 199.841 140.32 200.491 140.32C201.141 140.32 201.641 140.79 201.641 141.5C201.641 142.21 201.141 142.68 200.491 142.68Z" fill="white"/>
<path d="M205.489 139.89V139H203.989V144H205.489V141.74C205.489 140.75 206.369 140.5 206.989 140.6V138.9C206.359 138.9 205.689 139.22 205.489 139.89Z" fill="white"/>
<path d="M208.884 142.1H212.434C212.474 141.91 212.494 141.71 212.494 141.5C212.494 139.99 211.414 138.86 209.954 138.86C208.374 138.86 207.294 140.01 207.294 141.5C207.294 142.99 208.354 144.14 210.064 144.14C211.014 144.14 211.754 143.79 212.244 143.11L211.044 142.42C210.844 142.64 210.494 142.8 210.084 142.8C209.534 142.8 209.074 142.62 208.884 142.1ZM208.854 140.98C208.994 140.47 209.374 140.19 209.944 140.19C210.394 140.19 210.844 140.4 211.004 140.98H208.854Z" fill="white"/>
<defs>
<filter id="filter0_d_108_80" x="136" y="2" width="61" height="61" filterUnits="userSpaceOnUse" color-interpolation-filters="sRGB">
<feFlood flood-opacity="0" result="BackgroundImageFix"/>
<feColorMatrix in="SourceAlpha" type="matrix" values="0 0 0 0 0 0 0 0 0 0 0 0 0 0 0 0 0 0 127 0" result="hardAlpha"/>
<feOffset dy="2"/>
<feGaussianBlur stdDeviation="5"/>
<feColorMatrix type="matrix" values="0 0 0 0 0 0 0 0 0 0 0 0 0 0 0 0 0 0 0.1 0"/>
<feBlend mode="normal" in2="BackgroundImageFix" result="effect1_dropShadow_108_80"/>
<feBlend mode="normal" in="SourceGraphic" in2="effect1_dropShadow_108_80" result="shape"/>
</filter>
<filter id="filter1_d_108_80" x="0" y="0" width="61" height="61" filterUnits="userSpaceOnUse" color-interpolation-filters="sRGB">
<feFlood flood-opacity="0" result="BackgroundImageFix"/>
<feColorMatrix in="SourceAlpha" type="matrix" values="0 0 0 0 0 0 0 0 0 0 0 0 0 0 0 0 0 0 127 0" result="hardAlpha"/>
<feOffset dy="2"/>
<feGaussianBlur stdDeviation="5"/>
<feColorMatrix type="matrix" values="0 0 0 0 0 0 0 0 0 0 0 0 0 0 0 0 0 0 0.1 0"/>
<feBlend mode="normal" in2="BackgroundImageFix" result="effect1_dropShadow_108_80"/>
<feBlend mode="normal" in="SourceGraphic" in2="effect1_dropShadow_108_80" result="shape"/>
</filter>
<filter id="filter2_d_108_80" x="66" y="0" width="65" height="65" filterUnits="userSpaceOnUse" color-interpolation-filters="sRGB">
<feFlood flood-opacity="0" result="BackgroundImageFix"/>
<feColorMatrix in="SourceAlpha" type="matrix" values="0 0 0 0 0 0 0 0 0 0 0 0 0 0 0 0 0 0 127 0" result="hardAlpha"/>
<feOffset dy="2"/>
<feGaussianBlur stdDeviation="5"/>
<feColorMatrix type="matrix" values="0 0 0 0 0 0 0 0 0 0 0 0 0 0 0 0 0 0 0.1 0"/>
<feBlend mode="normal" in2="BackgroundImageFix" result="effect1_dropShadow_108_80"/>
<feBlend mode="normal" in="SourceGraphic" in2="effect1_dropShadow_108_80" result="shape"/>
</filter>
<radialGradient id="paint0_angular_108_80" cx="0" cy="0" r="1" gradientUnits="userSpaceOnUse" gradientTransform="translate(98.5 30.5) rotate(90) scale(0.5)">
<stop stop-color="#B8D2F1"/>
<stop offset="0.166667" stop-color="#F289AA"/>
<stop offset="0.294697" stop-color="#C68BF0"/>
<stop offset="0.427083" stop-color="#D164DA"/>
<stop offset="0.614583" stop-color="#C963E8"/>
<stop offset="0.71875" stop-color="#BFC2E8"/>
<stop offset="0.802083" stop-color="#FFC999"/>
<stop offset="0.875" stop-color="#D0D8C9"/>
<stop offset="0.928149" stop-color="#BAD0F1"/>
<stop offset="0.997133" stop-color="#CED8CB"/>
<stop offset="1" stop-color="white" stop-opacity="0"/>
</radialGradient>
<clipPath id="clip0_108_80">
<rect width="16" height="16" fill="white" transform="translate(91 22)"/>
</clipPath>
<clipPath id="clip1_108_80">
<rect width="20" height="20" fill="white" transform="translate(25 127)"/>
</clipPath>
</defs>
</svg>
